<?xml version="1.0" encoding="UTF-8"?>
<svg id="Layer_2" data-name="Layer 2" xmlns="http://www.w3.org/2000/svg" viewBox="0 0 1009.42 584.34">
  <defs>
    <style>
      .cls-1 {
        fill: #fff;
      }
    </style>
  </defs>
  <g id="Layer_3" data-name="Layer 3">
    <path class="cls-1" d="m929.79,584.34c-43.98,0-79.63-35.65-79.63-79.63,0-190.48-154.97-345.46-345.46-345.46S159.25,314.23,159.25,504.71c0,43.98-35.65,79.63-79.63,79.63S0,548.69,0,504.71c0-68.1,13.36-134.21,39.7-196.48,25.42-60.11,61.8-114.08,108.13-160.4,46.33-46.33,100.29-82.71,160.4-108.13C370.5,13.36,436.61,0,504.71,0s134.21,13.36,196.48,39.7c60.11,25.42,114.08,61.81,160.4,108.13,46.33,46.33,82.71,100.29,108.13,160.4,26.34,62.27,39.7,128.38,39.7,196.48,0,43.98-35.65,79.63-79.63,79.63Z"/>
  </g>
</svg>