<?xml version="1.0" encoding="UTF-8"?>
<svg id="Layer_2" data-name="Layer 2" xmlns="http://www.w3.org/2000/svg" viewBox="0 0 659.59 659.59">
  <defs>
    <style>
      .cls-1 {
        fill: #fff;
      }
    </style>
  </defs>
  <g id="Layer_3" data-name="Layer 3">
    <path class="cls-1" d="m329.79,659.59c-44.5,0-87.69-8.73-128.38-25.94-39.28-16.61-74.54-40.39-104.81-70.66s-54.04-65.54-70.66-104.81C8.73,417.49,0,374.29,0,329.79s8.73-87.7,25.94-128.39c16.61-39.28,40.39-74.54,70.66-104.81,30.27-30.27,65.54-54.04,104.81-70.66C242.1,8.73,285.29,0,329.79,0s87.7,8.73,128.39,25.94c39.28,16.61,74.54,40.39,104.81,70.66,30.27,30.27,54.04,65.54,70.66,104.81,17.21,40.69,25.94,83.89,25.94,128.39s-8.73,87.7-25.94,128.39c-16.61,39.28-40.39,74.54-70.66,104.81-30.27,30.27-65.54,54.04-104.81,70.66-40.69,17.21-83.89,25.94-128.39,25.94Zm0-562.32c-128.21,0-232.52,104.31-232.52,232.52s104.31,232.52,232.52,232.52,232.52-104.31,232.52-232.52-104.31-232.52-232.52-232.52Z"/>
  </g>
</svg>