<?xml version="1.0" encoding="UTF-8"?>
<svg id="Layer_2" data-name="Layer 2" xmlns="http://www.w3.org/2000/svg" viewBox="0 0 119.2 119.2">
  <defs>
    <style>
      .cls-1 {
        fill: #fff;
      }
    </style>
  </defs>
  <g id="Layer_2-2" data-name="Layer 2">
    <g>
      <g>
        <circle cx="59.6" cy="59.6" r="55.6" transform="translate(-8.78 108.89) rotate(-80.78)"/>
        <path class="cls-1" d="m59.6,8c28.45,0,51.6,23.15,51.6,51.6s-23.15,51.6-51.6,51.6S8,88.06,8,59.6,31.15,8,59.6,8m0-8C26.69,0,0,26.68,0,59.6s26.68,59.6,59.6,59.6,59.6-26.68,59.6-59.6S92.52,0,59.6,0h0Z"/>
      </g>
      <g>
        <circle cx="59.6" cy="59.6" r="55.6" transform="translate(-8.78 108.89) rotate(-80.78)"/>
        <path class="cls-1" d="m59.6,8c28.45,0,51.6,23.15,51.6,51.6s-23.15,51.6-51.6,51.6S8,88.06,8,59.6,31.15,8,59.6,8m0-8C26.69,0,0,26.68,0,59.6s26.69,59.6,59.6,59.6,59.6-26.68,59.6-59.6S92.52,0,59.6,0h0Z"/>
      </g>
      <path class="cls-1" d="m0,59.6c0,26.14,16.84,48.34,40.25,56.37,23.47-7.99,40.36-30.2,40.36-56.37S63.72,11.22,40.25,3.23C16.84,11.27,0,33.46,0,59.6Z"/>
    </g>
  </g>
</svg>