<?xml version="1.0" encoding="UTF-8"?>
<svg id="Layer_2" data-name="Layer 2" xmlns="http://www.w3.org/2000/svg" viewBox="0 0 1009.42 929.79">
  <defs>
    <style>
      .cls-1 {
        fill: #d94e4e;
      }

      .cls-2 {
        fill: #fff;
      }

      .cls-3 {
        fill: blue;
      }

      .cls-4 {
        fill: #969696;
      }

      .cls-5 {
        fill: #8f8f8f;
      }

      .cls-6 {
        fill: #787878;
      }

      .cls-7 {
        fill: #424242;
      }

      .cls-8 {
        fill: #adadad;
      }

      .cls-9 {
        fill: #666;
      }
    </style>
  </defs>
  <g id="Layer_2-2" data-name="Layer 2">
    <g>
      <path d="m929.79,584.34c-43.98,0-79.63-35.65-79.63-79.63,0-190.48-154.97-345.46-345.46-345.46S159.25,314.23,159.25,504.71c0,43.98-35.65,79.63-79.63,79.63S0,548.69,0,504.71c0-68.1,13.36-134.21,39.7-196.48,25.42-60.11,61.8-114.08,108.13-160.4,46.33-46.33,100.29-82.71,160.4-108.13C370.5,13.36,436.61,0,504.71,0s134.21,13.36,196.48,39.7c60.11,25.42,114.08,61.81,160.4,108.13,46.33,46.33,82.71,100.29,108.13,160.4,26.34,62.27,39.7,128.38,39.7,196.48,0,43.98-35.65,79.63-79.63,79.63Z"/>
      <path class="cls-9" d="m504.71,834.5c-44.5,0-87.69-8.73-128.38-25.94-39.28-16.61-74.54-40.39-104.81-70.66-30.27-30.27-54.04-65.54-70.66-104.81-17.21-40.69-25.94-83.89-25.94-128.39s8.73-87.7,25.94-128.39c16.61-39.28,40.39-74.54,70.66-104.81s65.54-54.04,104.81-70.66c40.69-17.21,83.88-25.94,128.38-25.94s87.7,8.73,128.39,25.94c39.28,16.61,74.54,40.39,104.81,70.66s54.04,65.54,70.66,104.81c17.21,40.69,25.94,83.89,25.94,128.39s-8.73,87.7-25.94,128.39c-16.61,39.28-40.39,74.54-70.66,104.81-30.27,30.27-65.54,54.04-104.81,70.66-40.69,17.21-83.89,25.94-128.39,25.94Zm0-562.32c-128.21,0-232.52,104.31-232.52,232.52s104.31,232.52,232.52,232.52,232.52-104.31,232.52-232.52-104.31-232.52-232.52-232.52Z"/>
      <path class="cls-1" d="m190.78,484.93c4.29-69.64,31.24-134.99,77.26-187.42,4.34-4.94,11.96-5.16,16.62-.53l31.2,30.98c4.27,4.24,4.5,11.05.58,15.61-34.56,40.25-55.02,89.91-58.86,142.83-.44,6-5.39,10.67-11.41,10.67h-43.97c-6.6,0-11.83-5.56-11.43-12.15Z"/>
      <g>
        <path class="cls-5" d="m190.78,484.93c4.29-69.64,31.24-134.99,77.26-187.42,4.34-4.94,11.96-5.16,16.62-.53l31.2,30.98c4.27,4.24,4.5,11.05.58,15.61-34.56,40.25-55.02,89.91-58.86,142.83-.44,6-5.39,10.67-11.41,10.67h-43.97c-6.6,0-11.83-5.56-11.43-12.15Z"/>
        <path class="cls-5" d="m818.64,524.49c-4.29,69.64-31.24,134.99-77.26,187.42-4.34,4.94-11.96,5.16-16.62.53l-31.2-30.98c-4.27-4.24-4.5-11.05-.58-15.61,34.56-40.25,55.02-89.91,58.86-142.83.44-6,5.39-10.67,11.41-10.67h43.97c6.6,0,11.83,5.56,11.43,12.15Z"/>
        <path class="cls-5" d="m524.49,190.78c69.64,4.29,134.99,31.24,187.42,77.26,4.94,4.34,5.16,11.96.53,16.62l-30.98,31.2c-4.24,4.27-11.05,4.5-15.61.58-40.25-34.56-89.91-55.02-142.83-58.86-6-.44-10.67-5.39-10.67-11.41v-43.97c0-6.6,5.56-11.83,12.15-11.43Z"/>
        <path class="cls-5" d="m484.93,818.64c-69.64-4.29-134.99-31.24-187.42-77.26-4.94-4.34-5.16-11.96-.53-16.62l30.98-31.2c4.24-4.27,11.05-4.5,15.61-.58,40.25,34.56,89.91,55.02,142.83,58.86,6,.44,10.67,5.39,10.67,11.41v43.97c0,6.6-5.56,11.83-12.15,11.43Z"/>
        <path class="cls-5" d="m296.72,268.75c52.28-46.2,117.54-73.37,187.16-77.89,6.56-.43,12.1,4.81,12.13,11.38l.16,43.97c.02,6.02-4.63,10.99-10.63,11.45-52.9,4.03-102.48,24.67-142.62,59.37-4.55,3.94-11.36,3.73-15.61-.52l-31.09-31.09c-4.66-4.66-4.43-12.3.51-16.67Z"/>
        <path class="cls-5" d="m712.71,740.68c-52.28,46.2-117.54,73.37-187.16,77.89-6.56.43-12.1-4.81-12.13-11.38l-.16-43.97c-.02-6.02,4.63-10.99,10.63-11.45,52.9-4.03,102.48-24.67,142.62-59.37,4.55-3.94,11.36-3.73,15.61.52l31.09,31.09c4.66,4.66,4.43,12.3-.51,16.67Z"/>
        <path class="cls-5" d="m740.68,296.72c46.2,52.28,73.37,117.54,77.89,187.16.43,6.56-4.81,12.1-11.38,12.13l-43.97.16c-6.02.02-10.99-4.63-11.45-10.63-4.03-52.9-24.67-102.48-59.37-142.62-3.94-4.55-3.73-11.36.52-15.61l31.09-31.09c4.66-4.66,12.3-4.43,16.67.51Z"/>
        <path class="cls-5" d="m268.75,712.71c-46.2-52.28-73.37-117.54-77.89-187.16-.43-6.56,4.81-12.1,11.38-12.13l43.97-.16c6.02-.02,10.99,4.63,11.45,10.63,4.03,52.9,24.67,102.48,59.37,142.62,3.94,4.55,3.73,11.36-.52,15.61l-31.09,31.09c-4.66,4.66-12.3,4.43-16.67-.51Z"/>
      </g>
      <path class="cls-7" d="m504.71,722.35c-58.13,0-112.79-22.64-153.89-63.75-41.11-41.11-63.75-95.76-63.75-153.89s22.64-112.79,63.75-153.89c41.11-41.11,95.76-63.75,153.89-63.75s112.79,22.64,153.9,63.74c41.11,41.11,63.75,95.76,63.75,153.9s-22.64,112.79-63.75,153.9c-41.11,41.11-95.76,63.74-153.9,63.74Zm0-338.01c-66.37,0-120.37,54-120.37,120.37s54,120.37,120.37,120.37,120.37-54,120.37-120.37-54-120.37-120.37-120.37Z"/>
      <path class="cls-6" d="m314.72,497.08c-6.78,0-12.06-5.86-11.39-12.61,4.58-46.41,24.87-89.45,58.28-122.86,33.41-33.41,76.45-53.7,122.86-58.28,6.75-.67,12.61,4.61,12.61,11.39v44.16c0,5.75-4.27,10.6-9.98,11.34-60.73,7.91-108.98,56.15-116.89,116.89-.74,5.7-5.59,9.98-11.34,9.98h-44.16Z"/>
      <path class="cls-6" d="m694.71,512.34c6.78,0,12.06,5.86,11.39,12.61-4.58,46.41-24.87,89.45-58.28,122.86-33.41,33.41-76.45,53.7-122.86,58.28-6.75.67-12.61-4.61-12.61-11.39v-44.16c0-5.75,4.27-10.6,9.98-11.34,60.73-7.91,108.98-56.15,116.89-116.89.74-5.7,5.59-9.98,11.34-9.98h44.16Z"/>
      <path class="cls-6" d="m512.34,314.72c0-6.78,5.86-12.06,12.61-11.39,46.41,4.58,89.45,24.87,122.86,58.28,33.41,33.41,53.7,76.45,58.28,122.86.67,6.75-4.61,12.61-11.39,12.61h-44.16c-5.75,0-10.6-4.27-11.34-9.98-7.91-60.73-56.15-108.98-116.89-116.89-5.7-.74-9.98-5.59-9.98-11.34v-44.16Z"/>
      <path class="cls-6" d="m497.08,694.71c0,6.78-5.86,12.06-12.61,11.39-46.41-4.58-89.45-24.87-122.86-58.28-33.41-33.41-53.7-76.45-58.28-122.86-.67-6.75,4.61-12.61,11.39-12.61h44.16c5.75,0,10.6,4.27,11.34,9.98,7.91,60.73,56.15,108.98,116.89,116.89,5.7.74,9.98,5.59,9.98,11.34v44.16Z"/>
      <g>
        <circle class="cls-8" cx="397.12" cy="244.95" r="30.51"/>
        <circle class="cls-8" cx="612.31" cy="764.47" r="30.51"/>
      </g>
      <g>
        <circle class="cls-8" cx="244.95" cy="397.12" r="30.51"/>
        <circle class="cls-8" cx="764.47" cy="612.31" r="30.51"/>
      </g>
      <g>
        <circle class="cls-8" cx="244.95" cy="612.31" r="30.51"/>
        <circle class="cls-8" cx="764.47" cy="397.12" r="30.51"/>
      </g>
      <g>
        <circle class="cls-8" cx="397.12" cy="764.47" r="30.51"/>
        <circle class="cls-8" cx="612.31" cy="244.95" r="30.51"/>
      </g>
      <g>
        <circle class="cls-2" cx="929.99" cy="504.71" r="56.66"/>
        <path d="m929.99,448.22c31.15,0,56.49,25.34,56.49,56.49s-25.34,56.49-56.49,56.49-56.49-25.34-56.49-56.49,25.34-56.49,56.49-56.49m0-.35c-31.39,0-56.84,25.45-56.84,56.84s25.45,56.84,56.84,56.84,56.84-25.45,56.84-56.84-25.45-56.84-56.84-56.84h0Z"/>
      </g>
      <g>
        <circle class="cls-2" cx="79.63" cy="504.71" r="56.66"/>
        <path d="m79.63,448.22c31.15,0,56.49,25.34,56.49,56.49s-25.34,56.49-56.49,56.49-56.49-25.34-56.49-56.49,25.34-56.49,56.49-56.49m0-.35c-31.39,0-56.84,25.45-56.84,56.84s25.45,56.84,56.84,56.84,56.84-25.45,56.84-56.84-25.45-56.84-56.84-56.84h0Z"/>
      </g>
      <path class="cls-3" d="m504.71,80.41c57.28,0,112.85,11.22,165.16,33.34,50.53,21.37,95.9,51.96,134.87,90.93,38.97,38.97,69.56,84.34,90.93,134.87,22.12,52.31,33.34,107.88,33.34,165.16s-11.22,112.85-33.34,165.16c-21.37,50.53-51.96,95.9-90.93,134.87-38.97,38.97-84.34,69.56-134.87,90.93-52.31,22.12-107.88,33.34-165.16,33.34s-112.85-11.22-165.16-33.34c-50.52-21.37-95.9-51.96-134.87-90.93-38.97-38.97-69.56-84.34-90.93-134.87-22.12-52.31-33.34-107.88-33.34-165.16s11.22-112.85,33.34-165.16c21.37-50.53,51.96-95.9,90.93-134.87,38.97-38.97,84.34-69.56,134.87-90.93,52.31-22.12,107.88-33.34,165.16-33.34m0-.78c-234.77,0-425.08,190.32-425.08,425.08s190.32,425.08,425.08,425.08,425.08-190.32,425.08-425.08S739.48,79.63,504.71,79.63h0Z"/>
      <path class="cls-4" d="m498.97,516.84l-68.65,39.59c-6.34,3.66-7.74,12.24-2.85,17.68,19.01,21.16,46.59,34.48,77.28,34.48s58.27-13.32,77.28-34.48c4.89-5.45,3.49-14.03-2.85-17.68l-68.68-39.59c-3.57-2.06-7.96-2.06-11.53,0Z"/>
      <path class="cls-7" d="m497.1,493.64v-79.26c0-7.32-6.73-12.81-13.89-11.3-47.04,9.91-82.36,51.65-82.36,101.64,0,11.21,1.78,22,5.07,32.11,2.27,6.97,10.39,10.08,16.74,6.42l68.66-39.6c3.57-2.06,5.77-5.87,5.77-10Z"/>
      <path class="cls-9" d="m518.14,503.63l68.69,39.59c6.35,3.66,14.48.55,16.74-6.42,3.28-10.11,5.06-20.89,5.06-32.09,0-50-35.33-91.75-82.38-101.64-7.16-1.51-13.88,3.99-13.88,11.3v79.25c0,4.13,2.2,7.94,5.78,10Z"/>
    </g>
  </g>
</svg>