<?xml version="1.0" encoding="UTF-8"?>
<svg id="Layer_2" data-name="Layer 2" xmlns="http://www.w3.org/2000/svg" viewBox="0 0 219.5 97.21">
  <defs>
    <style>
      .cls-1 {
        fill: #fff;
      }
    </style>
  </defs>
  <g id="Layer_3" data-name="Layer 3">
    <g>
      <path class="cls-1" d="m136.95,32.81c.12,1.1.6,3.86,2.49,5.45,1.89,1.6,4.69,1.6,5.79,1.54-.12-1.1-.6-3.86-2.49-5.45h0c-1.88-1.59-4.69-1.6-5.79-1.54Z"/>
      <path class="cls-1" d="m179.51,29.77c-2.43.42-4.24,2.55-4.9,3.44.92.61,3.34,2.03,5.77,1.6,2.44-.42,4.25-2.55,4.9-3.44-.92-.61-3.33-2.02-5.77-1.6Z"/>
      <path class="cls-1" d="m214.94,60.91c-2.38-.64-4.92.54-5.89,1.07.58.94,2.19,3.24,4.57,3.88,2.38.64,4.92-.54,5.89-1.07-.58-.94-2.19-3.24-4.57-3.88Z"/>
      <path class="cls-1" d="m90.6,41.65c1.78-1.7,2.1-4.49,2.15-5.59-1.1,0-3.9.19-5.68,1.89-1.78,1.7-2.1,4.49-2.15,5.59,1.1,0,3.9-.19,5.68-1.89Z"/>
      <path class="cls-1" d="m125.52,19.72c2.43.34,4.82-1.15,5.71-1.79-.69-.86-2.57-2.94-5.01-3.28-2.45-.33-4.82,1.15-5.71,1.79.69.86,2.57,2.94,5.01,3.28Z"/>
      <path class="cls-1" d="m125.06,8.29c2.34.78,4.95-.25,5.95-.73-.52-.97-2-3.36-4.33-4.13-2.34-.77-4.95.26-5.95.73.52.97,2,3.36,4.33,4.13Z"/>
      <path class="cls-1" d="m84.09,18.41c1.03-.4,3.57-1.59,4.61-3.82.78-1.67.58-3.61.28-4.92-.87.5-2.33,1.19-4,1.39-.36.4-.68.85-.92,1.36-1.04,2.23-.33,4.94.02,5.99Z"/>
      <g>
        <path class="cls-1" d="m123.5.8l-1.22-.1-1.79,2.47c.5-.23,1.25-.52,2.14-.74l.87-1.63Z"/>
        <path class="cls-1" d="m94.35,1.82c.19-.38.42-.74.68-1.06l-.36-.5-1.29.08.96,1.5s0,0,0-.01Z"/>
        <path class="cls-1" d="m122.45,19.58c-.48-.31-.91-.65-1.29-.98l-5.65,1.68.55-2.64-.55-.3-2.04,3.49-3.43,1.34v-5.88l10.53-10.47c-.47-.69-.77-1.27-.9-1.54l-.64.88-8.99,6.93v-1.79l1.84-4.45-.88-5.78S108.27,0,105.27,0v2.71l-2.07,5.88-3.29-2.35c-.42.51-.9.95-1.4,1.33l3.67,3.9h0s0,0,0,0h0l-.23,4.6h-4.07l-1.64-1.13-.24-3.13h-.43l-.23,2.51-5.94-6.01h0c-.76-.92-2.59-2.81-4.93-3.14-2.43-.34-4.82,1.15-5.71,1.79.69.86,2.57,2.94,5.01,3.28,2.01.28,3.97-.68,5.1-1.39l8.15,9.46.93.41-1.65.82.34.6,2.55-.87,2.53,1.12-.4,7.84-4.38-3.4-.64.68,4.89,5.26-.35,6.94-5.75,6.32c11.3-.98,21.27,0,21.27,0l-6.32-9.2v-9.52l12.41-5.74Z"/>
      </g>
      <path class="cls-1" d="m201.15,78.45l-4.78,2.51-2.98,4.63-.43.66-.45-.06-7.46-.93,6.66-.83.9-6.06.04-.24.73-.79,2.56-2.77c-3.76-2.67-7.61-5.16-11.55-7.46l-3.25,4.02-1.45,5.53.53-5.71v-.1s.08-.16.08-.16l2.47-4.51c-1.35-.77-2.71-1.51-4.07-2.23l1.43-2.9,3.1-1.02,1.76,4.44-.67-5.47-.05-.44-.7-.08c-.18-.02-2.42-.27-3.98-.45l-.67-5.84-.04-.39-.29-.1-5.78-1.95,4.99,2.79-.05,5.76-.34.43-2.55,3.24c-1.61-.8-3.23-1.58-4.87-2.32-.88,1.53-1.6,2.78-1.61,2.8l-.42.13-7.21,2.25-.91,6.39-.41-6.95-.02-.33.42-.27,5.88-3.75.47-1.93c-9.41-3.97-19.13-6.98-29.01-9.02l-.4,2.38-.1.56-.28.21-6.05,4.63,1.3,6.49-2.27-6.56-.08-.23.21-.24,4.92-5.39-.05-2.41c-5.62-1.06-11.29-1.8-16.98-2.24l-1.03,1.3,2.82,5.61-4.68-5.19-.27-.3.22-.67.3-.93c-2.94-.18-5.88-.27-8.83-.29-.3,1.87-.55,3.47-.59,3.57,0,0-3.7,5.47-3.87,5.73l-.97,5.7-.84-6.04.07-.34,1.12-5.88-.6-2.65c-3.53.11-7.05.34-10.56.69l-.06,3.57v.38s-.04.05-.04.05l-2.39,4.19.57-4.39-1.15-3.48c-4.24.51-8.47,1.18-12.66,2.03-.3,2.37-.69,5.45-.66,5.54,0,0-2.47,4.31-2.56,4.47l.71,4.6s-2.54-4.45-2.55-4.47c0,.1,1.39-2.93,1.38-3.09,0,0-1.56-1.86-1.56-1.86l-1.25-3.73c-3.33.83-6.64,1.76-9.93,2.81l-3.52,4.37,2.8,6-3.75-5.84-.13-.21.15-.28,1.72-3.14c-3.31,1.12-6.59,2.36-9.83,3.71l-.72,4.91,4.79,4.96.24.25v.18s.46,6.53.46,6.53l-1.73-5.95-6.69-3.99-.51-.3-.16-1.07-.5-3.41c-3.04,1.39-6.04,2.9-9,4.5l-3.89-4.83.38-3.24,4.77.28-5.24-1.69-.43-.14-.36.6c-.1.16-1.26,2.08-2.08,3.42l-5.58-1.85-.37-.12-.21.22-4.2,4.43,4.63-3.35,5.2,2.47c.13.25.25.49.25.49l2.89,5.7c-2.61,1.51-5.19,3.07-7.73,4.74,1.21,2.24,2.48,4.61,2.63,4.88l-.12.46-1.86,7.29,4.87,3.97-6.39-2.82-.37-.16-.07-.7-.69-6.59-3.24-2.72c-4.81,3.46-9.47,7.21-13.95,11.28l7.54,7.54c4.07,4.07,10.52,4.48,15.08.97,48.54-37.35,116.77-37.35,165.3,0,4.56,3.51,11.01,3.1,15.08-.97l7.54-7.54c-3.05-2.77-6.18-5.39-9.39-7.88Z"/>
      <path class="cls-1" d="m97.06.16c-.71.55-1.39,1.24-1.83,2.12-1.11,2.2-.48,4.93-.16,5.99,1.04-.37,3.62-1.48,4.73-3.68.76-1.5.7-3.24.49-4.53-1.24.03-2.41.07-3.23.11Z"/>
    </g>
  </g>
</svg>