<?xml version="1.0" encoding="UTF-8"?>
<svg id="Layer_2" data-name="Layer 2" xmlns="http://www.w3.org/2000/svg" viewBox="0 0 241.35 96.05">
  <defs>
    <style>
      .cls-1 {
        fill: #fff;
      }
    </style>
  </defs>
  <g id="Layer_3" data-name="Layer 3">
    <g>
      <rect class="cls-1" x="182.28" y="20.29" width="1" height="48.49" transform="translate(22.04 142.29) rotate(-45)"/>
      <g>
        <path class="cls-1" d="m32.26,48.05L13.75,29.54c-.29.18-.57.37-.86.55l18.67,18.67.71-.71Z"/>
        <path class="cls-1" d="m194.32,30.69l-26.43-26.43c-.61-.14-1.22-.28-1.83-.42l27.56,27.56.71-.71Z"/>
      </g>
      <path class="cls-1" d="m45.41,27.04l-.71.71,23.88,23.88c.28-.19.56-.38.83-.58l-24.01-24.01Z"/>
      <rect class="cls-1" x="56.32" y="11.83" width="1" height="17.58" transform="translate(2.06 46.22) rotate(-45)"/>
      <rect class="cls-1" x="88.64" y="22.47" width="1" height="17.58" transform="translate(4 72.19) rotate(-45)"/>
      <rect class="cls-1" x="134.55" y="16.22" width="1" height="17.58" transform="translate(21.87 102.82) rotate(-45)"/>
      <path class="cls-1" d="m157.44,39.39l-.71.71,7.96,7.96c.42-.04.84-.1,1.25-.16l-8.51-8.51Z"/>
      <rect class="cls-1" x="144.05" y="6.47" width="1" height="8.79" transform="translate(34.66 105.4) rotate(-45)"/>
      <rect class="cls-1" x="204.42" y="41.56" width="1" height="8.79" transform="translate(27.52 158.36) rotate(-45)"/>
      <rect class="cls-1" x="220.39" y="60.49" width="1" height="8.79" transform="translate(18.81 175.2) rotate(-45)"/>
      <rect class="cls-1" x="123.82" y="-.93" width="1" height="8.79" transform="translate(33.96 88.92) rotate(-45)"/>
      <rect class="cls-1" x="212.41" y="19.6" width="1" height="22.58" transform="translate(40.51 159.59) rotate(-45)"/>
      <rect class="cls-1" x="72.48" y="17.88" width="1" height="8.79" transform="translate(5.62 58.13) rotate(-45)"/>
      <rect class="cls-1" x="232.01" y="44.46" width="1" height="24" transform="translate(28.18 180.95) rotate(-45)"/>
      <path class="cls-1" d="m53.82,56.18l-11.3-11.3-.71.71,10.54,10.54c.47.03.95.06,1.42.06.02,0,.03,0,.05,0Z"/>
      <path class="cls-1" d="m28.95,61.93l-.71.71,5.23,5.23c.39-.07.78-.15,1.17-.24l-5.69-5.69Z"/>
      <rect class="cls-1" x="6.07" y="44.93" width="1" height="17.58" transform="translate(-36.06 20.38) rotate(-45)"/>
      <path class="cls-1" d="m86.97,14.76l-.93.9,6.34,1.9,7.58.83,2.81,3.65-3.09,2.64-1.98.21-2.22-2.23-.32.28,1.46,2.06-8.43-.71-.11.75,12.41,1.91.97-.29-.72,1.7.65.23,1.37-2.32,2.65-.79,4.79,6.22-5.54.26-.04.93,7.13.82,4.24,5.51-.1,2.87c1.6-.55,3.15-1.25,4.62-2.1l.5-.29.5.29c1.03.59,2.1,1.11,3.2,1.56h0s2.76-.01,2.76-.01l1.13,1.27c1.14.27,2.29.46,3.45.58h0v-2.14s9.18.76,9.18.76l1.22.37c.66-.2,1.32-.43,1.97-.68l.18-.07-2.94-2.05-6.38-1.9,7.33-1.24,4.38,2.1.67-1.1-4.67-3.1-8.19,1.05-13.68-4.33-6.18-7.24,6.19-13.48-1.35-.02-3.95,6.11-1.29-2.37-.61.13.71,3.98-1.73,3.25-3.82-4.47,1.26-15.49-1.65,1.19-2.33,11.11-1.16-1.36-1.49-4.58-6.64-3.74-2.66-3.54s-3.58.48-7.44,1.11l1.69,2.76,7.98,6.29,2.24,4.81-6.51.56-5.38-1.35Z"/>
      <path class="cls-1" d="m20.37,89.75l2.95,2.95c.25.25.52.49.79.72.27.23.55.44.84.63.43.3.88.55,1.34.78.68.34,1.38.61,2.1.8.75.21,1.53.34,2.3.39.24.01.48.02.71.02,2.45,0,4.92-.78,6.99-2.38,14.46-11.13,30.68-18.92,47.6-23.41,3.73-.99,7.49-1.82,11.27-2.49,7.86-1.39,15.82-2.11,23.79-2.11,29.19,0,58.38,9.34,82.65,28.02,2.07,1.59,4.53,2.38,6.99,2.38.22,0,.44,0,.66-.02.17,0,.34-.03.52-.05.26-.03.52-.06.77-.1,2.26-.39,4.42-1.45,6.15-3.18l9.58-9.58c-7.51-2.37-14.13-7.49-17.31-14.07-2.03-.16-4.08-.55-6.1-1.19-6.16-1.95-11.15-5.87-14.5-10.85-.73.06-1.47.09-2.21.09-2.73,0-5.51-.41-8.26-1.28-4.64-1.46-8.61-4.05-11.72-7.36-2.02.47-4.11.72-6.23.72-1.48,0-2.98-.12-4.48-.37-1-.17-1.99-.4-2.98-.68-.27-.08-.54-.14-.81-.23-3.36-1.06-6.37-2.71-8.95-4.8-3.16,1.25-6.57,1.91-10.05,1.91-2.74,0-5.52-.41-8.27-1.28-1.94-.61-3.77-1.43-5.46-2.41-4.12,2.38-8.85,3.69-13.73,3.69-2.74,0-5.52-.41-8.27-1.28-.6-.19-1.19-.41-1.77-.63-2.95,2.37-6.37,4.1-10.02,5.09-.8.22-1.6.41-2.42.55-1.56.27-3.15.42-4.75.42-2.06,0-4.15-.23-6.22-.72-5.15,5.51-12.42,8.71-20.06,8.71-.72,0-1.45-.03-2.18-.09-2.27,3.39-5.29,6.25-8.8,8.34-.08.05-.17.1-.26.15-3.51,2.04-7.51,3.32-11.78,3.63-3.31,6.79-9.35,12.01-16.68,14.24l1.71,1.71h0s4.59,4.59,4.59,4.59Z"/>
    </g>
  </g>
</svg>