<?xml version="1.0" encoding="UTF-8"?>
<svg id="Layer_2" data-name="Layer 2" xmlns="http://www.w3.org/2000/svg" viewBox="0 0 210.54 86.9">
  <defs>
    <style>
      .cls-1 {
        fill: #fff;
      }
    </style>
  </defs>
  <g id="Layer_3" data-name="Layer 3">
    <g>
      <g>
        <path class="cls-1" d="m98.24,51.58l-2.08-4.61-8.07-1.96-5.32,2.93,3.13,9.96c2.55-.36,5.11-.67,7.67-.89l4.67-5.44Z"/>
        <path class="cls-1" d="m40.11,70.27l-3.04,4.56c1.88-1.09,3.79-2.12,5.71-3.12l-2.66-1.44Z"/>
        <path class="cls-1" d="m13.34,76.71l1.89-5.48-5-3.75c-1.71,1.31-3.4,2.65-5.07,4.04l8.18,5.18Z"/>
        <path class="cls-1" d="m26.93,81.35l-2.17-9.48h-7.63l-2.02,5.84,10.2,4.82c.54-.39,1.07-.8,1.61-1.19Z"/>
        <path class="cls-1" d="m80.99,48.93l-6.18,3.41v7.63c3.01-.69,6.04-1.29,9.08-1.77l-2.91-9.26Z"/>
        <path class="cls-1" d="m47.92,63.43l-.29.37-.4-.54-8.58,1.88,1.84,3.06,4.45,2.4c2.89-1.43,5.83-2.76,8.8-3.97l-5.83-3.21Z"/>
        <path class="cls-1" d="m72.81,53.07l-10.44,2.98,3.61,6.25c2.27-.68,4.54-1.32,6.83-1.88v-7.34Z"/>
        <path class="cls-1" d="m60.18,56.27l-5.33-1.75-5.69,7.31,6.97,3.84c2.6-1.01,5.23-1.92,7.88-2.76l-3.84-6.64Z"/>
        <path class="cls-1" d="m27.61,62.73l6.12-2.41-2.02-6.63c-2.19,1.16-4.35,2.38-6.49,3.66l2.39,5.38Z"/>
        <polygon class="cls-1" points="52.11 54.78 44.46 56.14 47.67 60.49 52.11 54.78"/>
        <path class="cls-1" d="m122.8,50.94l-3.13-6.38h-5.52l-4.74,6.4,2.15,5.7c3.32.15,6.64.42,9.95.81l1.31-6.53Z"/>
        <path class="cls-1" d="m203.18,69.74l-2.78,5.22,3.78,7.41,6.36-6.36c-2.4-2.18-4.86-4.26-7.36-6.27Z"/>
        <path class="cls-1" d="m63.19,41.11l6.35,10.81,3.9-1.11,6.68-3.68-9.55-7.21.6-.79c-2.67.59-5.33,1.25-7.97,1.98Z"/>
        <path class="cls-1" d="m82.02,46.08l4.78-2.64-1.61-6.77c-4.27.55-8.53,1.27-12.75,2.17l9.57,7.23Z"/>
        <path class="cls-1" d="m34.53,62.15l-6.59,2.6-1.36,6.12,2.12,9.27c1.42-.97,2.86-1.92,4.31-2.84l5.59-8.37-4.06-6.78Z"/>
        <polygon class="cls-1" points="42.06 56.26 33.53 52.81 35.87 60.5 37.57 63.33 45.93 61.49 42.06 56.26"/>
        <path class="cls-1" d="m55.44,52.6l5.44,1.79,6.66-1.9-6.34-10.81c-2.15.63-4.29,1.3-6.42,2.03l.66,8.89Z"/>
        <path class="cls-1" d="m42.81,54.4l10.62-1.88-.6-8.14c-5.78,2.05-11.46,4.45-17.01,7.19l7,2.82Z"/>
        <path class="cls-1" d="m16.75,69.87h8.01l1.28-5.75-2.55-5.74c-3.95,2.42-7.82,5.04-11.59,7.85l4.86,3.64Z"/>
        <path class="cls-1" d="m183.31,63.71l-9.73-3.24-5.1.81-.5,10.53c2.7,1.41,5.35,2.92,7.97,4.52l7.35-12.62Z"/>
        <path class="cls-1" d="m198.54,74.2l3.05-5.73c-3.21-2.51-6.5-4.87-9.86-7.1l-5.59,2.31,6.29,13.56,6.1-3.05Z"/>
        <path class="cls-1" d="m96.11,44.9l2.01-9.35c-3.65.17-7.29.46-10.92.88l1.59,6.7,7.33,1.78Z"/>
        <path class="cls-1" d="m166.5,61l-7.06-3.95-3.76,9.13c3.51,1.4,6.96,2.95,10.36,4.65l.46-9.83Z"/>
        <path class="cls-1" d="m198.83,76.29l-13.17,6.57c.75.55,1.51,1.09,2.25,1.66,4.45,3.42,10.68,3.11,14.76-.68l-3.85-7.55Z"/>
        <path class="cls-1" d="m107.61,51.88l-7.69.82-3.54,4.12c4.33-.28,8.66-.36,13-.23l-1.77-4.7Z"/>
        <path class="cls-1" d="m157.79,55.78l-5.17-6.71-5.71,4.51v9.45c2.32.74,4.63,1.53,6.91,2.4l3.98-9.65Z"/>
        <path class="cls-1" d="m13.94,79.36l-6.58,4.01.18.18c4.07,4.07,10.52,4.48,15.08.97.29-.22.58-.42.87-.64l-9.54-4.51Z"/>
        <path class="cls-1" d="m11.98,78.22l-8.16-5.17.52-.82c-1.46,1.23-2.91,2.49-4.34,3.79l5.91,5.91,6.07-3.7Z"/>
        <path class="cls-1" d="m190.65,78.14l-5.95-12.82-7.03,12.07c2.09,1.32,4.16,2.7,6.19,4.14l6.79-3.39Z"/>
        <path class="cls-1" d="m189.71,60.05c-3.83-2.45-7.74-4.72-11.73-6.81l-2.89,5.63,9.67,3.22,4.95-2.04Z"/>
        <path class="cls-1" d="m153.8,47.32l5.26,6.82,6.88-6.57c-4-1.68-8.04-3.19-12.14-4.52v4.26Z"/>
        <path class="cls-1" d="m160.61,55.42l7.1,3.97,5.3-.84,3.19-6.22c-2.72-1.38-5.48-2.69-8.26-3.9l-7.33,7Z"/>
        <path class="cls-1" d="m107.73,49.86l4.63-6.24-7.24-8.23c-1.65,0-3.29.04-4.94.09l-2.26,10.52,2.11,4.68,7.7-.82Z"/>
        <path class="cls-1" d="m133.27,55.93l2.27-6.88-10.84,2.58-1.22,6.11c3.58.48,7.14,1.1,10.68,1.87l-.89-3.68Z"/>
        <path class="cls-1" d="m144.91,53.66l-7.3-4.48-2.26,6.84.99,4.09c2.88.67,5.74,1.44,8.57,2.3v-8.75Z"/>
        <path class="cls-1" d="m145.84,51.88l5.96-4.71v-4.75c-4.96-1.54-9.99-2.83-15.05-3.87l1.23,8.49,7.86,4.83Z"/>
        <path class="cls-1" d="m121.45,43.66l2.94,5.99,11.54-2.75-1.27-8.74c-2.75-.52-5.51-.98-8.28-1.35l-4.94,6.86Z"/>
        <path class="cls-1" d="m114.09,42.56h5.69l4.35-6.04c-5.42-.65-10.87-1.03-16.33-1.11l6.29,7.15Z"/>
      </g>
      <path class="cls-1" d="m117.51,10.6v-1.02s-2.13.38-2.13.38l.55-2.64-.55-.3-2.04,3.49-3.43,1.34V0s-1.72,1.15-1.72,1.15l-1.15-1.15-1.92,2.68-.96-1.53h-2.11s-.23,4.6-.23,4.6h-4.07s-1.64-1.13-1.64-1.13l-.24-3.13h-.43s-.23,2.51-.23,2.51l-1.85-1.28-.6.68,4.13,4.6.93.41-1.65.82.34.6,2.55-.87,2.53,1.12-.4,7.84-4.38-3.4-.64.68,4.89,5.26-.35,6.94-5.75,6.32c11.3-.98,21.27,0,21.27,0l-6.32-9.2v-9.52s7.6-4.4,7.6-4.4Z"/>
    </g>
  </g>
</svg>