<?xml version="1.0" encoding="UTF-8"?>
<svg id="Layer_2" data-name="Layer 2" xmlns="http://www.w3.org/2000/svg" viewBox="0 0 224.92 97.21">
  <defs>
    <style>
      .cls-1 {
        fill: #fff;
      }
    </style>
  </defs>
  <g id="Layer_3" data-name="Layer 3">
    <g>
      <g>
        <path class="cls-1" d="m116.82,8.58l-.4-.2.16-.42s.2-.52.57-1.21c-3.32.74-6.68-1.14-6.83-1.23l-.39-.22.18-.41c.07-.15,1.5-3.39,4.35-4.88-.03,0-.05,0-.08,0-3.56,0-7.11.1-10.64.28l-.02.06-.04-.05c-4.25.22-8.48.57-12.68,1.05.04.06.07.11.12.16l.52.68-.85.12c-.39.06-.74.14-1.06.25-2.45.84-3.97,3.38-4.49,4.39.41.19,1.08.47,1.89.68l1.11.3-.97.61c-.96.6-1.69,1.31-2.19,2.1-1.37,2.21-.94,5.13-.7,6.24,1.1-.29,3.91-1.21,5.28-3.41.12-.19.22-.39.32-.6l.79-1.73.16,1.89c.07.85.23,1.58.35,2.02.48-.15,1.28-.44,2.13-.91l.88-.48-.17,1.1c-.33,2.61,1.28,5.1,1.96,6.01.81-.66,2.7-2.4,3.26-4.68l.25-1.01.63.82c.58.75,1.19,1.32,1.56,1.64l.38-.45.24.92c.56,2.15,2.27,3.83,3.02,4.49.67-.84,2.21-3.05,2.18-5.47v-.17s.1-.14.1-.14c.26-.35.65-.91,1.01-1.6l.48-.92.42.94c.95,2.13,3.13,3.51,4.04,4.01.5-1.02,1.64-3.75.86-6.22l-.37-1.09.95.31c.82.27,1.56.41,2.06.48.07-.24.14-.49.23-.74,0-.28,0-.58-.02-.91l-.06-.95.73.44c.23-.41.49-.81.81-1.18-1.18-.32-1.98-.72-2.02-.74Z"/>
        <path class="cls-1" d="m120.04,9.51c-.46.43-.82.93-1.12,1.45-.08.15-.15.3-.22.45-.07.15-.15.3-.21.45-.04.1-.07.2-.11.31-.2.55-.34,1.08-.44,1.58-.13.66-.19,1.23-.21,1.6,1.04.01,3.62-.12,5.5-1.5l.83-.62-.04,1.04c-.03.95.06,1.78.14,2.26l.58-.09-.4.86c-.95,2.02-.71,4.4-.56,5.39,1.05-.22,3.66-.93,5.18-2.81l.11-.13.17-.04c.42-.1,1.08-.28,1.8-.58l.96-.4-.28,1c-.63,2.25.16,4.7.54,5.67,1.04-.46,3.66-1.83,4.65-4.23l.41-1.07.53.85c.51.83,1.07,1.47,1.41,1.84.27-.28.67-.72,1.08-1.28l.56-.77.31.9c.69,1.97,2.29,3.47,3.02,4.08.69-.91,2.32-3.37,2.03-5.94-.03-.26-.08-.51-.15-.75l-.21-.8.81.19c.73.17,1.37.25,1.78.29.04-1.14-.03-4.09-1.75-6.03-.26-.29-.56-.56-.89-.81l-.61-.45.65-.38c.66-.39,1.18-.79,1.5-1.05-.64-.71-2.23-2.28-4.25-2.88l-.66-.2.39-.57c.6-.87.99-1.73,1.19-2.23-1.07-.38-3.92-1.18-6.28-.11-.09.04-.17.08-.25.13l-.85.46.04-.92c.02-.15.04-.3.04-.45.03-.69-.09-1.36-.28-2-5.56-.6-11.17-.97-16.81-1.11l.25.35.02.03-1.14-.15s-.06,0-.09,0c-.54-.07-1.06-.09-1.54-.05-.49.04-.96.13-1.39.27-2.46.82-4.01,3.34-4.54,4.34,1.03.49,3.78,1.58,6.24.76.22-.07.42-.16.62-.26l1.71-.81-.24.34-.02.03-.83,1.18c-.49.7-.83,1.36-1.02,1.77.46.19,1.26.48,2.22.67l1,.2-.76.67-.11.09Z"/>
      </g>
      <path class="cls-1" d="m119.15,25.32l3.7-2.15c-.08-.38-.23-1.3-.22-2.44l-.06.1-3.43,1.34v-5.89c-1.11.11-1.91.05-1.98.04l-.45-.04v-.45c-.01-.08-.02-.99.2-2.19-.35-.05-.79-.13-1.28-.25.64,3.3-1.27,6.57-1.36,6.72l-.23.39-.41-.18c-.13-.06-2.97-1.37-4.52-3.9-.17.27-.35.54-.53.8,0,.73-.14,1.43-.34,2.09l.05-.02,2.53,1.12-.4,7.84-4.38-3.4-.64.68,4.89,5.26-.35,7.45-5.75,6.32c11.3-.98,21.27,0,21.27,0l-6.32-9.2v-10.03Z"/>
      <path class="cls-1" d="m224.92,70.67c-.68,1.72-1.7,3.23-2.83,4.63-2.12,2.54-4.65,4.78-7.35,6.76-1.91-1.6-3.85-3.14-5.82-4.64.66-1.58,1.84-3.06,2.86-4.35,1.33-1.55,2.99-3.1,4.55-4.44-2.44,1.09-5.57,2.66-8.11,4.72.73-1.68,1.23-3.46,1.37-5.3.07-1.33-.13-2.63-.49-3.83-.05,1.26-.28,2.46-.73,3.56-.99,2.31-2.68,4.29-4.66,5.84-.11-.08-.23-.16-.34-.24.42-2.31.21-4.76-.36-6.99-.51,1.74-1.28,3.63-2.43,5.11-4.94-3.26-10.02-6.21-15.21-8.85,3.11-4.79,7.51-8.81,13.13-10.41-5.19.54-9.78,3-13.61,6.43,1.04-3.2,1.01-6.99.98-10.07-1.25,3.9-2.53,8.84-6.24,10.97-.16.06-.3.09-.44.11-.03-.01-.05-.02-.08-.03v-.04s-.05,0-.07.01c-5.86-2.65-11.85-4.92-17.93-6.82-.11-4.75,1.37-9.54,4.57-13.14-3.78,2.41-6.51,6.17-8.05,10.37.07-.46.15-.93.2-1.41.23-2.39.01-5.02-1.29-7.06.59,3.36-.84,6.48-2.75,9.15-5.31-1.37-10.69-2.46-16.09-3.27-.04-.79-.11-1.59-.24-2.41-.32-1.92-.99-3.9-2.25-5.36.6,2.51.02,5.02-1,7.3-25.18-3.19-50.98-.28-75.01,8.75-.67-1.62-.56-3.69-.56-5.38-1.17,1.75-2.61,4.29-2.77,6.68-.69.28-1.37.56-2.06.85-2.08-1.45-3.93-3.21-4.69-5.61-.21,2.4.64,4.69,1.86,6.83-2.06.91-4.11,1.87-6.14,2.88-1.18-1.54-2.32-3.14-3.36-4.76-1.56-2.65-3.42-5.4-3.4-8.59-.88,3.17.26,6.57,1.13,9.64.61,1.9,1.29,3.73,2.04,5.55-.77.41-1.55.82-2.32,1.24-2.63-1.93-5.47-3.51-8.51-4.73-4.36-1.73-9.23-2.33-13.77-1.31,6.49-.26,12.45,2.7,17.21,6.96-2.53-.45-5.1-.65-7.69-.6-4.68.12-9.4,1.48-13.18,4.21,5.92-2.82,12.65-2.4,18.75-.3-7.91,4.92-15.47,10.6-22.59,17.06l7.54,7.54c4.07,4.07,10.52,4.48,15.08.97,48.54-37.35,116.76-37.35,165.3,0,4.56,3.51,11.01,3.1,15.08-.97l7.54-7.54c-.73-.67-1.48-1.32-2.22-1.97,3.35-4.01,6.57-8.48,7.49-13.68Z"/>
      <path class="cls-1" d="m16.91,38.96c1.53,1.45,3.48,3.03,4.72,4.69.34.66.61,1.38.62,2.29,0,0-.16.12-.16.12-1.68-.47-2.56-1.6-3.23-3.06-.76-1.27-1.47-2.58-2.12-3.92,0,0,.16-.12.16-.12h0Z"/>
      <path class="cls-1" d="m.15,40.62c1.6,1.37,3.63,2.86,4.95,4.45.37.65.68,1.34.74,2.26l-.15.13c-1.7-.39-2.64-1.47-3.38-2.9-.82-1.23-1.59-2.5-2.31-3.81,0,0,.15-.13.15-.13H.15Z"/>
      <path class="cls-1" d="m58.47,10.48c1.12,1.8,2.58,3.82,3.37,5.74.16.73.24,1.49.01,2.38l-.18.08c-1.5-.89-2.07-2.2-2.34-3.79-.41-1.42-.76-2.87-1.04-4.33,0,0,.18-.08.18-.08h0Z"/>
      <path class="cls-1" d="m77.53,34.03c.94,1.95,2.14,4.01,2.74,6.07.08.74.08,1.5-.24,2.36l-.19.06c-1.4-1.04-1.82-2.41-1.92-4.02-.26-1.46-.45-2.93-.58-4.41,0,0,.19-.06.19-.06h0Z"/>
      <path class="cls-1" d="m204.1,32.78c-.82,1.94-1.63,4.32-2.75,6.06-.5.55-1.08,1.05-1.93,1.38l-.17-.11c-.14-1.74.61-2.96,1.75-4.09.93-1.16,1.91-2.27,2.93-3.35,0,0,.17.11.17.11h0Z"/>
      <path class="cls-1" d="m211.65,28.76c-.82,1.94-1.63,4.32-2.75,6.06-.5.55-1.08,1.05-1.93,1.38l-.17-.11c-.14-1.74.61-2.96,1.75-4.09.93-1.16,1.91-2.27,2.93-3.35,0,0,.17.11.17.11h0Z"/>
      <path class="cls-1" d="m214.37,51.52c-1.23,1.71-2.55,3.85-4.03,5.3-.61.42-1.28.79-2.19.92l-.14-.14c.25-1.73,1.25-2.75,2.61-3.6,1.16-.92,2.36-1.79,3.6-2.61,0,0,.14.14.14.14h0Z"/>
      <path class="cls-1" d="m163.7,19.19c-.17,2.16-.17,4.54-.69,6.62-.3.68-.69,1.34-1.4,1.92,0,0-.19-.05-.19-.05-.68-1.61-.36-3,.36-4.44.51-1.39,1.09-2.76,1.72-4.1,0,0,.19.05.19.05h0Z"/>
      <path class="cls-1" d="m174.26,44.63c-.55,2.08-.99,4.45-1.86,6.39-.42.61-.91,1.2-1.72,1.64l-.18-.08c-.39-1.7.18-3.02,1.15-4.3.75-1.28,1.57-2.52,2.43-3.73,0,0,.18.08.18.08h0Z"/>
      <path class="cls-1" d="m58.37,22.78c1.11,1.79,2.59,3.83,3.37,5.74.16.73.24,1.49.01,2.38l-.18.08c-1.5-.89-2.07-2.2-2.34-3.79-.41-1.42-.76-2.87-1.04-4.33,0,0,.19-.08.19-.08h0Z"/>
    </g>
  </g>
</svg>