<?xml version="1.0" encoding="UTF-8"?>
<svg id="Layer_2" data-name="Layer 2" xmlns="http://www.w3.org/2000/svg" viewBox="0 0 435.28 435.28">
  <defs>
    <style>
      .cls-1 {
        fill: #fff;
      }
    </style>
  </defs>
  <g id="Layer_3" data-name="Layer 3">
    <path class="cls-1" d="m217.64,435.28c-58.13,0-112.79-22.64-153.89-63.75C22.64,330.43,0,275.77,0,217.64S22.64,104.85,63.75,63.75C104.85,22.64,159.51,0,217.64,0s112.79,22.64,153.9,63.74c41.11,41.11,63.75,95.76,63.75,153.9s-22.64,112.79-63.75,153.9c-41.11,41.11-95.76,63.74-153.9,63.74Zm0-338.01c-66.37,0-120.37,54-120.37,120.37s54,120.37,120.37,120.37,120.37-54,120.37-120.37-54-120.37-120.37-120.37Z"/>
  </g>
</svg>