<?xml version="1.0" encoding="UTF-8"?>
<svg id="Layer_2" data-name="Layer 2" xmlns="http://www.w3.org/2000/svg" viewBox="0 0 230.05 230.05">
  <defs>
    <style>
      .cls-1 {
        fill: #fff;
      }
    </style>
  </defs>
  <g id="Layer_2-2" data-name="Layer 2">
    <g>
      <circle class="cls-1" cx="115.02" cy="115.02" r="59.6"/>
      <g>
        <path class="cls-1" d="m119.04,47.45V4.02l-4.02-4.02-4.02,4.02v43.43c1.33-.08,2.67-.13,4.02-.13s2.69.05,4.02.13Z"/>
        <path class="cls-1" d="m165.64,70.09l9.73-9.73-5.68-5.68-9.73,9.73c2,1.78,3.9,3.68,5.68,5.68Z"/>
        <path class="cls-1" d="m64.4,159.96l-9.73,9.73,5.68,5.68,9.73-9.73c-2-1.78-3.9-3.68-5.68-5.68Z"/>
        <path class="cls-1" d="m159.96,165.64l9.73,9.73,5.68-5.68-9.73-9.73c-1.78,2-3.68,3.9-5.68,5.68Z"/>
        <path class="cls-1" d="m70.09,64.4l-9.73-9.73-5.68,5.68,9.73,9.73c1.78-2,3.68-3.9,5.68-5.68Z"/>
        <path class="cls-1" d="m111.01,182.6v43.43l4.02,4.02,4.02-4.02v-43.43c-1.33.08-2.67.13-4.02.13s-2.69-.05-4.02-.13Z"/>
        <path class="cls-1" d="m182.6,119.04h43.43l4.02-4.02-4.02-4.02h-43.43c.08,1.33.13,2.67.13,4.02s-.05,2.69-.13,4.02Z"/>
        <path class="cls-1" d="m47.45,111.01H4.02l-4.02,4.02,4.02,4.02h43.43c-.08-1.33-.13-2.67-.13-4.02s.05-2.69.13-4.02Z"/>
        <path class="cls-1" d="m84.41,30.62l-6.15,6.15,7.19,17.35c2.4-1.17,4.88-2.18,7.43-3.06l-8.46-20.43Z"/>
        <path class="cls-1" d="m145.64,199.43l6.15-6.15-7.19-17.35c-2.4,1.17-4.88,2.18-7.43,3.06l8.46,20.43Z"/>
        <path class="cls-1" d="m36.76,78.26l-6.15,6.15,20.43,8.46c.88-2.55,1.9-5.03,3.06-7.43l-17.35-7.19Z"/>
        <path class="cls-1" d="m193.28,151.79l6.15-6.15-20.43-8.46c-.88,2.55-1.9,5.03-3.06,7.43l17.35,7.19Z"/>
        <path class="cls-1" d="m199.43,84.41l-6.15-6.15-17.35,7.19c1.17,2.4,2.18,4.88,3.06,7.43l20.43-8.46Z"/>
        <path class="cls-1" d="m30.62,145.64l6.15,6.15,17.35-7.19c-1.17-2.4-2.18-4.88-3.06-7.43l-20.43,8.46Z"/>
        <path class="cls-1" d="m151.79,36.76l-6.15-6.15-8.46,20.43c2.55.88,5.03,1.9,7.43,3.06l7.19-17.35Z"/>
        <path class="cls-1" d="m78.26,193.28l6.15,6.15,8.46-20.43c-2.55-.88-5.03-1.9-7.43-3.06l-7.19,17.35Z"/>
      </g>
    </g>
  </g>
</svg>