<?xml version="1.0" encoding="UTF-8"?>
<svg id="Layer_2" data-name="Layer 2" xmlns="http://www.w3.org/2000/svg" viewBox="0 0 850.17 850.17">
  <g id="Layer_3" data-name="Layer 3">
    <path d="m425.08.78c57.28,0,112.85,11.22,165.16,33.34,50.53,21.37,95.9,51.96,134.87,90.93,38.97,38.97,69.56,84.34,90.93,134.87,22.12,52.31,33.34,107.88,33.34,165.16s-11.22,112.85-33.34,165.16c-21.37,50.53-51.96,95.9-90.93,134.87-38.97,38.97-84.34,69.56-134.87,90.93-52.31,22.12-107.88,33.34-165.16,33.34s-112.85-11.22-165.16-33.34c-50.52-21.37-95.9-51.96-134.87-90.93-38.97-38.97-69.56-84.34-90.93-134.87C12,537.93.78,482.36.78,425.08s11.22-112.85,33.34-165.16c21.37-50.53,51.96-95.9,90.93-134.87,38.97-38.97,84.34-69.56,134.87-90.93C312.24,12,367.8.78,425.08.78m0-.78C190.32,0,0,190.32,0,425.08s190.32,425.08,425.08,425.08,425.08-190.32,425.08-425.08S659.85,0,425.08,0h0Z"/>
  </g>
</svg>