<?xml version="1.0" encoding="UTF-8"?>
<svg id="Layer_2" data-name="Layer 2" xmlns="http://www.w3.org/2000/svg" viewBox="0 0 160.36 93.15">
  <defs>
    <style>
      .cls-1 {
        fill: #fff;
      }
    </style>
  </defs>
  <g id="Layer_2-2" data-name="Layer 2">
    <g>
      <polygon class="cls-1" points="115.44 52.26 110.01 48.02 95.68 36.86 101.27 44.28 105.49 53.31 106.21 54.47 114.73 56.29 115.44 52.26"/>
      <polygon class="cls-1" points="102.62 51.03 98.43 42.82 89.98 34.93 89.97 34.94 81.49 42 103.89 53.88 102.62 51.03"/>
      <path class="cls-1" d="m83.02,11.28l8.45,4.89h.02s16.1-12.39,16.1-12.39C96.99.84,85.92-.41,74.83.12l8.19,11.16Z"/>
      <path class="cls-1" d="m109.16,20.62l.35.39-.05.34-1.21,8.84-.7-8.36-8.4-6.67-5.29,3.23-1.58,14.26,19.32,13.56,4.87,3.8,13.76-17.14,13.56-10.93c-8.95-6.97-18.91-12.37-29.45-16.07l-11.9,7.28,6.72,7.47Z"/>
      <path class="cls-1" d="m157.46,34.72c-1.73-1.95-3.54-3.81-5.39-5.6l-4.25,1.38,1.77-3.7c-.65-.59-1.31-1.18-1.98-1.75l-14.93,7.78-15.43,18.18v.55s0,3.52,0,3.52l.13,1.76,3.61.77.67.14.37.77,4.71,9.75,27.79-15.9c6.35-3.63,7.78-12.2,2.92-17.67Z"/>
      <path class="cls-1" d="m105.53,56.88l-.35-.11-.04-.09-25.73-13.12-3.96-1.44,3.14,18.4,3.28,3.6.17.28-.18.4-7.57,15.43,7.33,12.94c1.43-.2,2.84-.66,4.13-1.4l37.21-21.29-3.59-10.06-13.83-3.52Z"/>
      <path class="cls-1" d="m70.74,80.2l.37-.63,3.08-5.31-8.71-6.06-8.18-1.62,8.7-.26c.24-.02.22.03.49.18,0,0,6.89,4.09,9.08,5.38l3.78-6.53-2.68-4.32-3.29-20.23-12.99-3.78-18.4-7.96-14.55.78-.36.02-.46-.26-2.3-1.27.71,8.52,4.64,6.93-6.33-5.97-.13-.12-.09-.35-2.88-11.26-5.54-3.07c-4.23,3.4-8.13,7.1-11.7,11.03-4.93,5.43-3.59,14.02,2.75,17.72l18.98,11.07,3.79-2.48-.77,4.24,2.06,1.2,5.68-4.03-.98,6.77,39.71,23.16c.68.4,1.4.69,2.13.94l-5.22-11.64-.36-.81Z"/>
      <path class="cls-1" d="m42.3,26.53l.39.02,18.04,8.54,18.37,6,7.76-5.41,2.75-2.82,1.15-14.81-9.09-5.26L72.45.26c-1.69.12-3.37.28-5.05.48l-.9,3.4-1.86-3.02c-.96.14-1.92.3-2.88.47l-1.39,6.16-3.46-5.18c-9.78,2.22-19.41,5.9-28.57,11.15-3.44,1.97-6.72,4.11-9.85,6.4l9.48,6.65,14.33-.23Z"/>
    </g>
  </g>
</svg>